# xmcd
#
# Track frame offsets: 
#        150
#        15723
#        29355
#        51540
#        69497
#        89574
#        105239
#        125306
#        145307
#        161438
#        178138
#        187220
#        207932
#        225652
#
# Disc length: 3363 seconds
#
# Revision: 0
# Processed by: cddbd v1.5.2PL0 Copyright (c) Steve Scherf et al.
# Submitted via: ExactAudioCopy v0.99pb5
#
DISCID=c60d210e
DTITLE=Raconteurs - Consolers Of The Lonely
DYEAR=2008
DGENRE=General Indie
TTITLE0=Consoler Of The Lonely
TTITLE1=Salute Your Solution
TTITLE2=You Don't Understand Me
TTITLE3=Old Enough
TTITLE4=The Switch And The Spur
TTITLE5=Hold Up
TTITLE6=Top Yourself
TTITLE7=Many Shades Of Black
TTITLE8=Five On The Five
TTITLE9=Attention
TTITLE10=Pull This Blanket Off
TTITLE11=Rich Kid Blues
TTITLE12=These Stones Will Shout
TTITLE13=Carolina Drama
EXTD=
EXTT0=
EXTT1=
EXTT2=
EXTT3=
EXTT4=
EXTT5=
EXTT6=
EXTT7=
EXTT8=
EXTT9=
EXTT10=
EXTT11=
EXTT12=
EXTT13=
PLAYORDER=
